<?xml version="1.0" encoding="UTF-8"?><svg id="Layer_1" xmlns="http://www.w3.org/2000/svg" width="1670.499" height="1452.34" viewBox="0 0 1670.499 1452.34"><path d="M0,1427.434V27.356C0,12.585,11.708.102,26.479.001c.135,0,.271-.001.407,0l278.109.731c58.79.155,114.196,9.866,168.483,28.829,90.002,31.439,156.554,97.696,184.959,188.826,40.597,130.248,15.269,252.66-11.427,380.503l-13.035,62.423c19.233-1.35,33.126-4.469,50.192-11.335,113.759-45.766,233.605-124.304,303.84-225.505,5.383-7.756,10.374-15.784,14.947-24.044,4.499-8.126,8.592-16.477,12.267-25.007,3.64-8.448,6.869-17.073,9.688-25.83,2.807-8.721,5.208-17.572,7.21-26.512,2.003-8.942,3.608-17.972,4.833-27.053,1.228-9.111,2.074-18.274,2.556-27.455.485-9.229.604-18.477.38-27.715-.225-9.295-.798-18.581-1.695-27.836-.902-9.311-2.132-18.589-3.669-27.816-1.545-9.276-3.399-18.5-5.542-27.655-2.152-9.192-4.596-18.314-7.315-27.354-2.724-9.059-5.725-18.034-8.987-26.913-3.262-8.878-6.785-17.659-10.558-26.331-3.763-8.649-7.776-17.19-12.029-25.609-4.191-8.296-8.386-16.832-13.363-24.683-1.409-2.222-2.772-4.509-3.593-7.023-.679-2.079-.984-4.453-1.113-6.632-.114-1.927.085-3.918.941-5.649,1.083-2.187,3.126-3.769,5.331-4.815,2.704-1.282,5.969-2.384,8.978-2.384,0,0,616.142-.012,616.142-.012,8.969,0,14.809,7.847,16.621,15.073,18.306,73.007,28.433,144.546,24.52,219.721-6.783,130.33-63.879,246.487-163.388,330.39-54.87,46.265-115.067,82.538-181.898,109.783-1.407.574-2.815,1.148-4.222,1.721-3.72,1.516-7.439,3.033-11.159,4.549-5.284,2.154-10.567,4.308-15.851,6.462-6.099,2.487-12.199,4.973-18.298,7.46-6.167,2.514-12.334,5.028-18.501,7.542-5.487,2.237-10.973,4.474-16.46,6.71-6.566,2.677-13.672,4.688-19.688,8.523-2.111,1.346-4.096,2.974-5.452,5.079-.286.445-.55.999-.334,1.482.143.32.461.519.764.695,4.186,2.445,8.647,4.251,13.287,5.63,2.491.74,5.017,1.36,7.55,1.936.656.149,7.461,1.393,7.461,1.617,4.417.947,8.833,1.894,13.25,2.842,5.413,1.161,10.827,2.322,16.24,3.483,6,1.287,12,2.574,18,3.86,6.177,1.325,12.354,2.65,18.531,3.974,5.944,1.275,11.888,2.55,17.832,3.824,5.301,1.137,10.603,2.274,15.904,3.411,4.249.911,8.498,1.822,12.746,2.734l8.359,1.793c.92.197,1.839.394,2.759.592,159.167,45.982,285.188,133.786,319.714,302.622,25.368,129.802-7.774,267.178-53.234,388.688l-546.043-.575c-6.456-.007-12.808-1.7-18.403-4.92-62.164-35.783-103.897-96.119-121.049-166.436-29.389-120.489,2.24-253.279,34.954-372.213,6.812-24.767,11.914-45.72,14.881-73.295-19.103-.512-34.388,1.044-52.468,5.566-77.371,19.354-148.09,54.155-210.575,103.801-151.643,120.484-200.98,298.431-180.891,488.222,1.053,9.947-5.489,19.616-17.526,19.62l-483.993.165c-7.055.002-12.472-1.508-16.837-4.345C3.707,1443.501,0,1435.563,0,1427.434Z" fill="#98ce7e" stroke="#231f20" stroke-miterlimit="10"/></svg>