<?xml version="1.0" encoding="UTF-8"?><svg id="Layer_1" xmlns="http://www.w3.org/2000/svg" width="1174.435" height="1404.35" xmlns:xlink="http://www.w3.org/1999/xlink" viewBox="0 0 1174.435 1404.35"><defs><linearGradient id="linear-gradient" x1="1479.085" y1="1214.761" x2="519.324" y2="1214.761" gradientUnits="userSpaceOnUse"><stop offset="0" stop-color="#97ca4c"/><stop offset=".064" stop-color="#7fbd49"/><stop offset=".19" stop-color="#55a746"/><stop offset=".314" stop-color="#359643"/><stop offset=".432" stop-color="#1d8941"/><stop offset=".543" stop-color="#0f8240"/><stop offset=".638" stop-color="#0b8040"/><stop offset=".714" stop-color="#15833e"/><stop offset=".847" stop-color="#338b39"/><stop offset="1" stop-color="#5c9833"/></linearGradient><linearGradient id="linear-gradient-2" x1="1479.085" y1="233.284" x2="519.324" y2="233.284" gradientUnits="userSpaceOnUse"><stop offset="0" stop-color="#5bba47"/><stop offset=".021" stop-color="#56b847"/><stop offset=".192" stop-color="#36ad47"/><stop offset=".357" stop-color="#1ea548"/><stop offset=".511" stop-color="#10a048"/><stop offset=".644" stop-color="#0c9f49"/><stop offset=".676" stop-color="#16a246"/><stop offset=".732" stop-color="#34ac41"/><stop offset=".806" stop-color="#63bb38"/><stop offset=".895" stop-color="#a5d12c"/><stop offset=".996" stop-color="#f8ec1d"/><stop offset="1" stop-color="#fcee1d"/></linearGradient><linearGradient id="linear-gradient-3" x1="1349.375" y1="499.542" x2="-104.838" y2="499.542" gradientUnits="userSpaceOnUse"><stop offset="0" stop-color="#84c441"/><stop offset=".104" stop-color="#68b140"/><stop offset=".251" stop-color="#489c3f"/><stop offset=".392" stop-color="#308c3f"/><stop offset=".524" stop-color="#22833f"/><stop offset=".638" stop-color="#1e803f"/><stop offset=".696" stop-color="#28863e"/><stop offset=".796" stop-color="#46983e"/><stop offset=".928" stop-color="#75b63e"/><stop offset="1" stop-color="#92c83e"/></linearGradient><linearGradient id="linear-gradient-4" x1="1349.372" y1="1008.441" x2="-104.844" y2="1008.441" gradientUnits="userSpaceOnUse"><stop offset="0" stop-color="#fff200"/><stop offset=".057" stop-color="#e1e712"/><stop offset=".165" stop-color="#aed631"/><stop offset=".271" stop-color="#84c74b"/><stop offset=".374" stop-color="#64bc5f"/><stop offset=".472" stop-color="#4cb46d"/><stop offset=".564" stop-color="#3eaf76"/><stop offset=".644" stop-color="#3aae79"/><stop offset=".728" stop-color="#44aa70"/><stop offset=".876" stop-color="#619f58"/><stop offset="1" stop-color="#7f9540"/></linearGradient><linearGradient id="linear-gradient-5" x1="-280.98" y1="451.904" x2="963.234" y2="451.904" gradientUnits="userSpaceOnUse"><stop offset="0" stop-color="#f5ee76"/><stop offset=".638" stop-color="#69c180"/><stop offset=".711" stop-color="#61ba7f"/><stop offset=".824" stop-color="#4baa7d"/><stop offset=".962" stop-color="#288e7a"/><stop offset="1" stop-color="#1d8679"/></linearGradient></defs><path d="M598.173,1402.031c40.015-19.508,186.784-102.242,361.295-305.583-4.443.079-8.865.222-13.324.222-31.444,0-64.368-1.938-97.882-5.764-48.902-5.643-96.951-14.763-142.745-27.093-41.464-11.02-81.599-24.067-119.74-38.639v379.099c4.22.32,8.487-.334,12.396-2.241Z" fill="url(#linear-gradient)"/><path d="M1170,137.4c-.826-14.709-14.488-25.178-28.922-22.477-7.878,1.487-15.811,2.864-23.689,4.132-47.707,7.658-95.965,11.734-144.279,11.185-11.971-.131-23.945-.578-35.907-1.279,12.301,9.314,24.519,18.749,36.55,28.425,66.688,53.55,126.939,110.801,179.039,170.123,7.197,8.151,14.223,16.341,21.095,24.564,1.894-96.54-1.549-175.073-3.888-214.672Z" fill="url(#linear-gradient-2)" opacity=".5"/><path d="M1030.739,275.142c-27.928-26.947-58.11-53.652-89.711-79.381-32.018-25.399-65.177-49.592-98.571-71.92-5.209-3.486-10.495-6.94-15.82-10.382-24.453-5.592-48.589-12.635-72.175-21.178-25.837-9.42-51.012-20.659-75.141-33.772-18.29-9.969-36.029-21.043-52.886-33.328-6.171-4.516-12.285-9.199-18.18-14.103-5.785-4.683-11.239-10.634-19.116-11.072-1.154-.051-2.249.192-3.361.355v903.085c51.061,23.621,102.808,43.403,154.629,58.889,82.039,24.384,159.899,36.748,231.418,36.748,5.799,0,11.642-.081,17.261-.238,16.784-.556,33.138-1.914,49.032-4.005,90.551-145.545,122.871-369.074,132.63-555.146-18.145-26.552-38.102-52.879-60.024-78.817-26.574-31.423-52.736-59.467-79.985-85.734Z" fill="url(#linear-gradient-3)"/><path d="M444.286,961.417l-15.015-7.858-.251-.131-.248-.139-14.831-8.273c-2.941-1.666-5.901-3.308-8.862-4.953-6.897-3.831-14.029-7.793-20.819-11.946l-28.76-17.2-.307-.181-.301-.196-27.977-18.033-.129-.084-.128-.086c-37.763-25.12-74.076-51.485-107.93-78.362l-.124-.1-.123-.1c-34.423-28.175-67.335-57.466-97.957-87.202-6.957-6.877-14.407-14.388-22.776-22.957l-.185-.191-.181-.196-21.469-23.119c-5.411-5.697-10.434-11.512-15.292-17.133-2.069-2.396-4.138-4.793-6.332-7.285l-10.354-11.937-.213-.246-.205-.251-9.943-12.195c-4.998-6.129-9.866-12.285-14.674-18.455,20.952,158.546,63.301,319.012,145.61,422.03,197.661,247.296,368.658,345.575,412.234,367.28,2.867,1.423,5.94,2.119,9.034,2.354v-379.099c-5.038-1.926-10.165-3.781-15.127-5.762-44.086-17.417-86.633-36.944-126.364-57.994Z" fill="url(#linear-gradient-4)" opacity=".5"/><path d="M569.802,8.491c-9.641,7.766-19.337,15.367-29.474,22.474-18.069,12.509-36.964,23.743-56.521,33.716-25.285,12.946-51.563,23.855-78.502,32.833-32.888,10.964-66.712,19.007-100.923,24.35-40.932,6.447-82.36,9.034-123.73,8.318-49.306-.771-98.446-6.224-146.925-15.259-14.433-2.701-28.041,7.712-28.977,22.42C2.328,176.934-1.284,255.553.459,352.183c3.571,8.404,7.364,16.864,11.412,25.38,30.28,63.362,71.957,126.364,123.867,187.251,26.666,31.259,52.892,59.135,80.184,85.228,28.007,26.8,58.263,53.349,89.832,78.839,32.3,25.771,65.287,50.031,98.057,72.115,32.378,21.847,66.887,42.763,105.496,63.937,25.252,13.839,50.781,26.626,76.47,38.512V.362c-6.003.871-11.42,4.41-15.975,8.13Z" fill="url(#linear-gradient-5)"/></svg>